<svg xmlns="http://www.w3.org/2000/svg" xmlns:xlink="http://www.w3.org/1999/xlink" width="16" height="128" viewBox="0 0 16 128"><linearGradient id="a" x1="8" x2="8" y1="2" y2="126" gradientUnits="userSpaceOnUse"><stop offset="0" stop-color="#ff7a7a"/><stop offset=".5" stop-color="#e1dc7a"/><stop offset="1" stop-color="#66ff9e"/></linearGradient><path fill="url(#a)" d="m3 2c-.554 0-1 .446-1 1s.446 1 1 1h10c.554 0 1-.446 1-1s-.446-1-1-1zm0 3c-.554 0-1 .446-1 1s.446 1 1 1h10c.554 0 1-.446 1-1s-.446-1-1-1zm0 3c-.554 0-1 .446-1 1s.446 1 1 1h10c.554 0 1-.446 1-1s-.446-1-1-1zm0 3c-.554 0-1 .446-1 1s.446 1 1 1h10c.554 0 1-.446 1-1s-.446-1-1-1zm0 3c-.554 0-1 .446-1 1s.446 1 1 1h10c.554 0 1-.446 1-1s-.446-1-1-1zm0 3c-.554 0-1 .446-1 1s.446 1 1 1h10c.554 0 1-.446 1-1s-.446-1-1-1zm0 3c-.554 0-1 .446-1 1s.446 1 1 1h10c.554 0 1-.446 1-1s-.446-1-1-1zm0 3c-.554 0-1 .446-1 1s.446 1 1 1h10c.554 0 1-.446 1-1s-.446-1-1-1zm0 3c-.554 0-1 .446-1 1s.446 1 1 1h10c.554 0 1-.446 1-1s-.446-1-1-1zm0 5c-.554 0-1 .446-1 1s.446 1 1 1h10c.554 0 1-.446 1-1s-.446-1-1-1zm0 3c-.554 0-1 .446-1 1s.446 1 1 1h10c.554 0 1-.446 1-1s-.446-1-1-1zm0 3c-.554 0-1 .446-1 1s.446 1 1 1h10c.554 0 1-.446 1-1s-.446-1-1-1zm0 3c-.554 0-1 .446-1 1s.446 1 1 1h10c.554 0 1-.446 1-1s-.446-1-1-1zm0 3c-.554 0-1 .446-1 1s.446 1 1 1h10c.554 0 1-.446 1-1s-.446-1-1-1zm0 3c-.554 0-1 .446-1 1s.446 1 1 1h10c.554 0 1-.446 1-1s-.446-1-1-1zm0 3c-.554 0-1 .446-1 1s.446 1 1 1h10c.554 0 1-.446 1-1s-.446-1-1-1zm0 3c-.554 0-1 .446-1 1s.446 1 1 1h10c.554 0 1-.446 1-1s-.446-1-1-1zm0 3c-.554 0-1 .446-1 1s.446 1 1 1h10c.554 0 1-.446 1-1s-.446-1-1-1zm0 3c-.554 0-1 .446-1 1s.446 1 1 1h10c.554 0 1-.446 1-1s-.446-1-1-1zm0 3c-.554 0-1 .446-1 1s.446 1 1 1h10c.554 0 1-.446 1-1s-.446-1-1-1zm0 3c-.554 0-1 .446-1 1s.446 1 1 1h10c.554 0 1-.446 1-1s-.446-1-1-1zm0 3c-.554 0-1 .446-1 1s.446 1 1 1h10c.554 0 1-.446 1-1s-.446-1-1-1zm0 3c-.554 0-1 .446-1 1s.446 1 1 1h10c.554 0 1-.446 1-1s-.446-1-1-1zm0 3c-.554 0-1 .446-1 1s.446 1 1 1h10c.554 0 1-.446 1-1s-.446-1-1-1zm0 3c-.554 0-1 .446-1 1s.446 1 1 1h10c.554 0 1-.446 1-1s-.446-1-1-1zm0 3c-.554 0-1 .446-1 1s.446 1 1 1h10c.554 0 1-.446 1-1s-.446-1-1-1zm0 3c-.554 0-1 .446-1 1s.446 1 1 1h10c.554 0 1-.446 1-1s-.446-1-1-1zm0 3c-.554 0-1 .446-1 1s.446 1 1 1h10c.554 0 1-.446 1-1s-.446-1-1-1zm0 3c-.554 0-1 .446-1 1s.446 1 1 1h10c.554 0 1-.446 1-1s-.446-1-1-1zm0 3c-.554 0-1 .446-1 1s.446 1 1 1h10c.554 0 1-.446 1-1s-.446-1-1-1zm0 3c-.554 0-1 .446-1 1s.446 1 1 1h10c.554 0 1-.446 1-1s-.446-1-1-1zm0 3c-.554 0-1 .446-1 1s.446 1 1 1h10c.554 0 1-.446 1-1s-.446-1-1-1zm0 3c-.554 0-1 .446-1 1s.446 1 1 1h10c.554 0 1-.446 1-1s-.446-1-1-1zm0 3c-.554 0-1 .446-1 1s.446 1 1 1h10c.554 0 1-.446 1-1s-.446-1-1-1zm0 3c-.554 0-1 .446-1 1s.446 1 1 1h10c.554 0 1-.446 1-1s-.446-1-1-1zm0 3c-.554 0-1 .446-1 1s.446 1 1 1h10c.554 0 1-.446 1-1s-.446-1-1-1zm0 3c-.554 0-1 .446-1 1s.446 1 1 1h10c.554 0 1-.446 1-1s-.446-1-1-1zm0 3c-.554 0-1 .446-1 1s.446 1 1 1h10c.554 0 1-.446 1-1s-.446-1-1-1zm0 3c-.554 0-1 .446-1 1s.446 1 1 1h10c.554 0 1-.446 1-1s-.446-1-1-1zm0 3c-.554 0-1 .446-1 1s.446 1 1 1h10c.554 0 1-.446 1-1s-.446-1-1-1zm0 3c-.554 0-1 .446-1 1s.446 1 1 1h10c.554 0 1-.446 1-1s-.446-1-1-1z"/></svg>