<svg xmlns="http://www.w3.org/2000/svg" width="16" height="16" viewBox="0 0 16 16"><g fill="#e0e0e0"><path d="m2.8642 9.9954v6h2a3 3 0 0 0 3-3v-3h-2v3a1 1 0 0 1 -1 1v-4z"/><path d="m10.864 9.9954a2 2 0 0 0 -1.7324 1 2 2 0 0 0 0 2 2 2 0 0 0 1.7324 1h-2v2h2a2 2 0 0 0 1.7324-1 2 2 0 0 0 0-2 2 2 0 0 0 -1.7324-1h2v-2z"/><path d="m2 1c-.55226.0001-.99994.4477-1 1v7h2v-6h6v3c0 .554.44599 1 1 1h3v2h2v-3l-5-5z"/></g><path fill="#ffeb70" d="m4 6h2v1h-2z"/><path fill="#9dff70" d="m8 8h4v1h-4z"/><path fill="#70deff" d="m7 6h1v1h-1z"/><path fill="#ff7070" d="m4 4h3v1h-3z"/><path fill="#70ffb9" d="m4 8h3v1h-3z"/></svg>